<?xml version="1.0" standalone="no"?>
<!DOCTYPE svg PUBLIC "-//W3C//DTD SVG 20010904//EN"
 "http://www.w3.org/TR/2001/REC-SVG-20010904/DTD/svg10.dtd">
<svg version="1.0" xmlns="http://www.w3.org/2000/svg"
 width="1150.000000pt" height="1741.000000pt" viewBox="0 0 1150.000000 1741.000000"
 preserveAspectRatio="xMidYMid meet">

<g transform="translate(0.000000,1741.000000) scale(0.100000,-0.100000)"
fill="#000000" stroke="none">
<path d="M4709 17153 c-13 -16 -12 -17 4 -4 16 13 21 21 13 21 -2 0 -10 -8
-17 -17z"/>
<path d="M4599 17053 l-34 -38 38 34 c20 19 37 36 37 38 0 8 -8 0 -41 -34z"/>
<path d="M6240 16955 c13 -14 26 -25 28 -25 3 0 -5 11 -18 25 -13 14 -26 25
-28 25 -3 0 5 -11 18 -25z"/>
<path d="M5890 16896 c0 -2 8 -10 18 -17 15 -13 16 -12 3 4 -13 16 -21 21 -21
13z"/>
<path d="M5995 16740 c9 -16 18 -30 21 -30 2 0 -2 14 -11 30 -9 17 -18 30 -21
30 -2 0 2 -13 11 -30z"/>
<path d="M5031 16744 c0 -11 3 -14 6 -6 3 7 2 16 -1 19 -3 4 -6 -2 -5 -13z"/>
<path d="M6040 16660 c11 -22 23 -40 25 -40 3 0 -4 18 -15 40 -11 22 -23 40
-25 40 -3 0 4 -18 15 -40z"/>
<path d="M5430 16679 c0 -4 11 -31 25 -60 17 -37 23 -45 20 -26 -3 25 -44 102
-45 86z"/>
<path d="M5060 16636 c0 -8 4 -17 9 -20 5 -4 7 3 4 14 -6 23 -13 26 -13 6z"/>
<path d="M4682 16545 c0 -16 2 -22 5 -12 2 9 2 23 0 30 -3 6 -5 -1 -5 -18z"/>
<path d="M5240 16515 c0 -5 5 -17 10 -25 5 -8 10 -10 10 -5 0 6 -5 17 -10 25
-5 8 -10 11 -10 5z"/>
<path d="M5930 16441 c5 -11 15 -23 21 -27 6 -3 3 5 -6 20 -20 30 -30 35 -15
7z"/>
<path d="M4673 16390 c0 -36 2 -50 4 -32 2 17 2 47 0 65 -2 17 -4 3 -4 -33z"/>
<path d="M4912 16415 c0 -16 2 -22 5 -12 2 9 2 23 0 30 -3 6 -5 -1 -5 -18z"/>
<path d="M5031 16414 c0 -11 3 -14 6 -6 3 7 2 16 -1 19 -3 4 -6 -2 -5 -13z"/>
<path d="M5630 16385 c13 -14 26 -25 28 -25 3 0 -5 11 -18 25 -13 14 -26 25
-28 25 -3 0 5 -11 18 -25z"/>
<path d="M5770 16360 c12 -19 24 -43 27 -52 5 -16 15 -22 28 -15 2 1 28 -20
57 -48 l52 -50 -48 54 c-39 42 -46 55 -35 63 10 7 8 8 -7 3 -17 -4 -30 4 -59
37 -34 39 -35 40 -15 8z"/>
<path d="M6090 16369 c-52 -4 -98 -5 -102 -3 -5 3 -8 -1 -8 -8 0 -7 9 -19 21
-26 12 -8 18 -9 15 -3 -8 13 23 21 116 30 40 3 69 8 63 11 -5 3 -53 3 -105 -1z"/>
<path d="M5022 16350 c0 -14 2 -19 5 -12 2 6 2 18 0 25 -3 6 -5 1 -5 -13z"/>
<path d="M4922 16325 c0 -16 2 -22 5 -12 2 9 2 23 0 30 -3 6 -5 -1 -5 -18z"/>
<path d="M5720 16287 c59 -61 66 -67 51 -38 -6 10 -7 22 -3 26 4 5 1 5 -6 0
-9 -5 -28 6 -55 31 -24 22 -19 14 13 -19z"/>
<path d="M4341 16314 c0 -11 3 -14 6 -6 3 7 2 16 -1 19 -3 4 -6 -2 -5 -13z"/>
<path d="M5012 16290 c0 -14 2 -19 5 -12 2 6 2 18 0 25 -3 6 -5 1 -5 -13z"/>
<path d="M5425 16250 c27 -27 51 -50 54 -50 3 0 -17 23 -44 50 -27 28 -51 50
-54 50 -3 0 17 -22 44 -50z"/>
<path d="M6041 16283 c42 -54 63 -78 68 -76 3 1 15 -6 26 -15 11 -9 -7 12 -40
46 -58 61 -81 79 -54 45z"/>
<path d="M4932 16250 c0 -14 2 -19 5 -12 2 6 2 18 0 25 -3 6 -5 1 -5 -13z"/>
<path d="M5830 16266 c0 -2 8 -10 18 -17 15 -13 16 -12 3 4 -13 16 -21 21 -21
13z"/>
<path d="M5360 16240 c6 -11 13 -20 16 -20 2 0 0 9 -6 20 -6 11 -13 20 -16 20
-2 0 0 -9 6 -20z"/>
<path d="M4673 16180 c0 -41 2 -58 4 -37 2 20 2 54 0 75 -2 20 -4 3 -4 -38z"/>
<path d="M4332 16205 c0 -16 2 -22 5 -12 2 9 2 23 0 30 -3 6 -5 -1 -5 -18z"/>
<path d="M4942 16190 c0 -14 2 -19 5 -12 2 6 2 18 0 25 -3 6 -5 1 -5 -13z"/>
<path d="M5895 16190 c10 -11 20 -20 23 -20 3 0 -3 9 -13 20 -10 11 -20 20
-23 20 -3 0 3 -9 13 -20z"/>
<path d="M5950 16186 c0 -2 8 -10 18 -17 15 -13 16 -12 3 4 -13 16 -21 21 -21
13z"/>
<path d="M5340 16145 c13 -14 26 -25 28 -25 3 0 -5 11 -18 25 -13 14 -26 25
-28 25 -3 0 5 -11 18 -25z"/>
<path d="M6411 16144 c0 -11 3 -14 6 -6 3 7 2 16 -1 19 -3 4 -6 -2 -5 -13z"/>
<path d="M4951 16134 c0 -11 3 -14 6 -6 3 7 2 16 -1 19 -3 4 -6 -2 -5 -13z"/>
<path d="M5450 16106 c0 -2 8 -10 18 -17 15 -13 16 -12 3 4 -13 16 -21 21 -21
13z"/>
<path d="M4959 16095 c-1 -6 -1 -14 0 -18 1 -5 -9 -6 -21 -3 l-23 6 23 -12
c28 -14 54 4 34 24 -7 7 -13 8 -13 3z"/>
<path d="M5028 16093 c7 -3 16 -2 19 1 4 3 -2 6 -13 5 -11 0 -14 -3 -6 -6z"/>
<path d="M5927 16084 c-58 -14 -111 -37 -121 -52 -3 -5 16 2 42 14 26 13 67
26 92 30 46 7 91 24 60 23 -8 0 -41 -7 -73 -15z"/>
<path d="M6421 16084 c0 -11 3 -14 6 -6 3 7 2 16 -1 19 -3 4 -6 -2 -5 -13z"/>
<path d="M6033 16083 c9 -2 23 -2 30 0 6 3 -1 5 -18 5 -16 0 -22 -2 -12 -5z"/>
<path d="M6145 16078 c-10 -6 -53 -12 -95 -13 -115 -2 -192 -42 -246 -127 -30
-46 -30 -46 1 -43 27 3 30 -2 15 -25 -8 -12 -10 -12 -10 5 -1 14 -5 10 -15
-14 -8 -18 -15 -36 -15 -39 0 -11 41 33 61 65 11 18 34 42 50 54 l30 21 -26
-37 c-38 -57 -34 -63 28 -51 28 6 57 13 62 16 6 3 48 5 95 5 84 0 85 0 99 -30
8 -16 18 -43 22 -60 7 -29 7 -29 8 -4 3 72 -54 159 -116 180 -19 6 -32 13 -29
16 8 8 119 -28 163 -54 37 -21 43 -30 49 -69 3 -25 4 -64 0 -87 l-6 -42 21 38
c23 43 43 139 34 166 -3 9 -23 28 -46 40 -34 19 -38 25 -27 38 11 14 9 15 -18
9 -17 -4 -43 -2 -58 3 -23 9 -25 14 -16 31 12 23 12 23 -15 8z m-128 -63 c-11
-9 -67 -13 -62 -5 3 6 -4 10 -17 11 -21 0 -21 1 -3 8 15 6 92 -7 82 -14z m303
-92 c0 -5 -7 -30 -14 -58 -10 -35 -14 -42 -15 -24 -1 15 -4 41 -7 58 -6 27 -4
31 15 31 11 0 21 -3 21 -7z"/>
<path d="M6561 16074 c0 -11 3 -14 6 -6 3 7 2 16 -1 19 -3 4 -6 -2 -5 -13z"/>
<path d="M6641 16074 c0 -11 3 -14 6 -6 3 7 2 16 -1 19 -3 4 -6 -2 -5 -13z"/>
<path d="M4860 16061 c0 -4 -17 -13 -37 -20 -21 -7 -59 -24 -85 -37 l-48 -25
-1 28 c-2 25 -2 25 -8 -7 -4 -19 -6 -36 -6 -38 1 -1 21 8 44 20 36 20 43 21
51 8 8 -13 10 -12 10 3 0 20 63 52 86 43 8 -3 14 1 14 10 0 11 6 14 23 8 12
-3 19 -3 15 1 -10 10 -58 15 -58 6z"/>
<path d="M6651 16021 c-1 -24 2 -32 9 -25 7 7 7 19 1 35 -9 23 -10 22 -10 -10z"/>
<path d="M6431 16014 c0 -11 3 -14 6 -6 3 7 2 16 -1 19 -3 4 -6 -2 -5 -13z"/>
<path d="M6572 16010 c0 -14 2 -19 5 -12 2 6 2 18 0 25 -3 6 -5 1 -5 -13z"/>
<path d="M4335 15978 c-3 -7 1 -116 9 -243 10 -177 13 -205 14 -120 0 61 -3
164 -7 230 -4 70 -3 125 2 133 6 8 5 12 -2 12 -6 0 -14 -6 -16 -12z"/>
<path d="M4397 15978 c13 -6 32 -30 43 -52 25 -52 60 -280 60 -390 0 -119 11
-225 21 -199 4 12 3 38 -2 57 -6 20 -7 41 -3 47 4 6 6 32 6 58 -2 74 -50 377
-66 415 -16 39 -50 76 -68 75 -7 0 -3 -5 9 -11z"/>
<path d="M4521 15954 c0 -11 3 -14 6 -6 3 7 2 16 -1 19 -3 4 -6 -2 -5 -13z"/>
<path d="M4691 15924 c0 -11 3 -14 6 -6 3 7 2 16 -1 19 -3 4 -6 -2 -5 -13z"/>
<path d="M4762 15920 c0 -14 2 -19 5 -12 2 6 2 18 0 25 -3 6 -5 1 -5 -13z"/>
<path d="M6442 15915 c0 -16 2 -22 5 -12 2 9 2 23 0 30 -3 6 -5 -1 -5 -18z"/>
<path d="M6587 15790 c3 -80 7 -147 9 -149 6 -7 2 137 -6 219 -5 50 -6 26 -3
-70z"/>
<path d="M6662 15845 c0 -65 3 -80 8 -55 4 19 8 26 9 15 1 -17 3 -18 11 -5 8
12 10 12 11 -5 0 -11 3 -14 6 -7 3 7 0 18 -6 26 -6 7 -17 37 -25 67 l-15 54 1
-90z"/>
<path d="M6751 15914 c0 -11 3 -14 6 -6 3 7 2 16 -1 19 -3 4 -6 -2 -5 -13z"/>
<path d="M4541 15854 c0 -11 3 -14 6 -6 3 7 2 16 -1 19 -3 4 -6 -2 -5 -13z"/>
<path d="M5128 15863 c12 -2 32 -2 45 0 12 2 2 4 -23 4 -25 0 -35 -2 -22 -4z"/>
<path d="M5056 15851 c-3 -4 6 -6 19 -3 14 2 25 6 25 8 0 8 -39 4 -44 -5z"/>
<path d="M4751 15834 c0 -11 3 -14 6 -6 3 7 2 16 -1 19 -3 4 -6 -2 -5 -13z"/>
<path d="M6007 15833 c-11 -11 -8 -48 5 -61 32 -32 71 6 48 48 -10 19 -40 27
-53 13z"/>
<path d="M4551 15814 c0 -11 3 -14 6 -6 3 7 2 16 -1 19 -3 4 -6 -2 -5 -13z"/>
<path d="M4975 15820 c-3 -6 1 -7 9 -4 18 7 21 14 7 14 -6 0 -13 -4 -16 -10z"/>
<path d="M5014 15802 c-27 -8 -61 -23 -76 -34 -15 -10 -44 -22 -64 -25 -34 -6
-35 -7 -15 -18 l22 -11 -23 -21 c-13 -12 -36 -27 -53 -34 -27 -11 -28 -13 -8
-16 l22 -4 -22 -37 c-11 -20 -24 -39 -28 -42 -14 -11 13 -54 71 -112 34 -33
64 -57 68 -53 4 4 -4 15 -17 26 -13 10 -20 19 -17 19 4 0 -3 18 -14 40 -11 21
-20 46 -20 54 0 27 60 114 103 151 48 42 66 46 30 8 -26 -29 -43 -63 -43 -89
0 -14 2 -13 16 0 8 9 30 16 48 16 19 0 39 6 45 14 7 8 33 14 63 15 28 0 60 3
70 7 30 9 58 -6 73 -39 l15 -32 -5 30 c-8 40 -34 75 -78 104 -46 30 -42 36 11
18 33 -12 39 -12 35 -1 -7 19 11 18 27 -1 10 -12 10 -15 -1 -15 -18 -1 4 -14
41 -25 23 -7 22 -6 -7 19 -32 27 -45 53 -20 41 6 -4 -1 5 -18 19 -54 47 -134
57 -231 28z m57 -11 c-8 -5 -20 -7 -28 -4 -21 8 -15 13 15 13 20 0 23 -3 13
-9z m-11 -21 c12 -8 10 -10 -8 -10 -13 0 -33 -5 -45 -11 -19 -9 -18 -7 3 10
29 24 30 24 50 11z m-214 -282 l26 -53 -42 41 c-24 23 -39 47 -36 53 13 21 26
11 52 -41z"/>
<path d="M6451 15784 c0 -23 -3 -57 -6 -75 -4 -29 -3 -30 4 -9 9 24 9 24 10
-7 1 -17 -5 -34 -11 -36 -10 -4 -10 -6 0 -6 6 -1 12 -8 12 -17 0 -14 -3 -14
-15 -4 -18 15 -19 7 -2 -21 10 -17 9 -23 -10 -39 -13 -10 -23 -24 -23 -31 0
-8 7 -6 19 5 19 17 20 17 24 -6 4 -19 5 -18 6 7 0 17 3 59 6 95 3 36 2 92 -3
125 -9 54 -10 56 -11 19z"/>
<path d="M5871 15764 c0 -11 3 -14 6 -6 3 7 2 16 -1 19 -3 4 -6 -2 -5 -13z"/>
<path d="M4741 15734 c0 -11 3 -14 6 -6 3 7 2 16 -1 19 -3 4 -6 -2 -5 -13z"/>
<path d="M6353 15700 c0 -30 2 -43 4 -27 2 15 2 39 0 55 -2 15 -4 2 -4 -28z"/>
<path d="M4643 15725 c-3 -9 -3 -19 1 -22 3 -4 6 1 6 10 0 21 33 22 54 2 26
-27 28 -94 7 -217 -12 -65 -30 -142 -40 -170 -11 -29 -22 -71 -26 -94 -12 -77
-42 -158 -61 -165 -15 -6 -15 -8 -3 -8 9 -1 20 -10 25 -22 8 -17 9 -14 10 18
0 21 4 47 8 58 11 24 11 24 30 110 8 39 24 93 35 120 10 28 22 77 26 110 4 33
13 83 20 112 15 61 4 139 -22 159 -24 18 -62 17 -70 -1z"/>
<path d="M6701 15724 c0 -11 3 -14 6 -6 3 7 2 16 -1 19 -3 4 -6 -2 -5 -13z"/>
<path d="M6651 15704 c0 -11 3 -14 6 -6 3 7 2 16 -1 19 -3 4 -6 -2 -5 -13z"/>
<path d="M4621 15643 c-14 -48 -61 -191 -76 -228 -6 -14 -5 -17 3 -10 13 13
95 261 90 275 -2 6 -10 -11 -17 -37z"/>
<path d="M6563 15660 c1 -19 -2 -48 -6 -63 -5 -19 -4 -26 2 -22 16 9 25 74 13
98 -9 20 -10 18 -9 -13z"/>
<path d="M4291 15664 c0 -11 3 -14 6 -6 3 7 2 16 -1 19 -3 4 -6 -2 -5 -13z"/>
<path d="M6220 15660 c0 -6 7 -10 15 -10 8 0 15 2 15 4 0 2 -7 6 -15 10 -8 3
-15 1 -15 -4z"/>
<path d="M6636 15635 c-9 -50 -40 -115 -85 -173 -19 -25 -30 -42 -24 -39 5 4
29 31 52 60 45 59 75 132 69 169 -3 17 -6 13 -12 -17z"/>
<path d="M6183 15629 c-6 -6 -44 -19 -85 -29 -40 -10 -61 -18 -47 -19 36 -1
124 26 139 44 15 17 9 20 -7 4z"/>
<path d="M6667 15610 c-3 -11 -3 -20 -1 -20 2 0 8 9 14 20 6 11 7 20 2 20 -6
0 -12 -9 -15 -20z"/>
<path d="M6342 15585 c0 -16 2 -22 5 -12 2 9 2 23 0 30 -3 6 -5 -1 -5 -18z"/>
<path d="M5077 15583 c-21 -20 1 -73 30 -73 22 0 38 46 23 65 -13 15 -42 20
-53 8z"/>
<path d="M6528 15543 c-18 -21 -41 -63 -34 -63 9 0 59 70 54 75 -3 3 -12 -3
-20 -12z"/>
<path d="M6331 15524 c0 -11 3 -14 6 -6 3 7 2 16 -1 19 -3 4 -6 -2 -5 -13z"/>
<path d="M4931 15520 c0 -8 6 -26 15 -40 l15 -25 -7 25 c-3 14 -10 32 -15 40
-7 13 -8 13 -8 0z"/>
<path d="M4335 15415 c-4 -48 -5 -89 -2 -91 2 -3 8 34 12 81 4 48 5 89 2 91
-2 3 -8 -34 -12 -81z"/>
<path d="M6408 15443 c6 -2 18 -2 25 0 6 3 1 5 -13 5 -14 0 -19 -2 -12 -5z"/>
<path d="M6475 15360 c-47 -64 -85 -88 -85 -53 0 31 -7 8 -13 -42 -5 -42 -5
-45 4 -18 5 17 17 34 27 37 28 9 92 75 105 109 11 28 1 19 -38 -33z"/>
<path d="M5168 15363 c-26 -14 -68 -28 -95 -33 -41 -6 -43 -8 -14 -9 47 -1
103 17 137 45 35 28 32 28 -28 -3z"/>
<path d="M6415 15380 c-4 -6 -11 -8 -16 -5 -5 4 -9 -2 -9 -11 0 -16 1 -16 20
1 11 10 20 20 20 22 0 7 -9 3 -15 -7z"/>
<path d="M5631 15375 c1 -19 18 -51 18 -35 0 8 -4 22 -9 30 -5 8 -9 11 -9 5z"/>
<path d="M6613 15310 c0 -36 2 -50 4 -32 2 17 2 47 0 65 -2 17 -4 3 -4 -33z"/>
<path d="M4737 15323 c9 -24 20 -43 25 -43 5 0 7 -4 4 -8 -3 -5 1 -9 8 -9 9 0
7 10 -8 32 -12 18 -26 41 -33 51 -7 11 -5 0 4 -23z"/>
<path d="M4980 15329 c0 -5 5 -7 10 -4 6 3 10 8 10 11 0 2 -4 4 -10 4 -5 0
-10 -5 -10 -11z"/>
<path d="M4322 15275 c0 -16 2 -22 5 -12 2 9 2 23 0 30 -3 6 -5 -1 -5 -18z"/>
<path d="M4523 15255 c0 -22 2 -30 4 -17 2 12 2 30 0 40 -3 9 -5 -1 -4 -23z"/>
<path d="M6511 15274 c0 -11 3 -14 6 -6 3 7 2 16 -1 19 -3 4 -6 -2 -5 -13z"/>
<path d="M4801 15236 c13 -18 12 -19 -4 -13 -16 6 -16 4 -2 -23 9 -17 18 -30
21 -30 2 0 0 9 -6 19 -7 14 -6 21 3 24 8 3 6 10 -7 23 -19 19 -20 19 -5 0z"/>
<path d="M4311 15214 c0 -11 3 -14 6 -6 3 7 2 16 -1 19 -3 4 -6 -2 -5 -13z"/>
<path d="M6342 15148 c-54 -150 -161 -298 -336 -465 -150 -142 -145 -140 -265
-113 -221 51 -430 134 -541 215 -27 20 -80 68 -117 108 -38 40 -65 68 -61 63
33 -39 -19 -33 -119 14 -47 23 -87 39 -89 37 -7 -7 171 -87 193 -87 21 0 22
-5 26 -82 l3 -83 2 83 2 84 63 -65 c66 -68 166 -137 257 -177 30 -13 61 -31
68 -39 15 -18 16 -97 1 -114 -5 -7 -19 -27 -29 -44 -14 -23 -27 -33 -44 -33
-14 0 -73 -24 -133 -53 -59 -29 -121 -57 -137 -62 -28 -10 -28 -11 -11 -25 11
-8 16 -10 12 -3 -5 7 6 16 30 23 21 7 84 35 141 62 57 27 105 48 107 46 3 -2
-7 -31 -20 -63 -23 -57 -76 -290 -74 -324 1 -9 9 20 18 64 30 135 60 230 102
319 39 84 59 106 59 66 0 -25 86 -108 158 -151 30 -19 75 -49 101 -68 31 -23
40 -27 26 -11 -11 13 -51 43 -90 68 -38 25 -95 67 -126 93 l-56 48 -6 78 c-3
43 -5 79 -3 80 1 2 29 -6 62 -17 86 -30 282 -80 313 -80 34 0 56 15 172 121
l96 88 7 -152 c4 -84 8 -165 9 -181 2 -27 -2 -30 -133 -82 -166 -66 -179 -73
-192 -99 -10 -20 -10 -20 9 1 11 11 92 49 179 83 163 65 224 95 224 112 0 5
-13 0 -30 -12 -34 -26 -35 -25 -43 18 -6 32 -6 32 26 26 18 -3 39 -9 48 -14
22 -11 53 -166 45 -227 -3 -26 -8 -67 -11 -92 l-5 -45 11 40 c6 22 14 80 17
129 7 83 8 88 23 73 16 -15 17 -15 21 7 3 17 1 23 -8 19 -24 -9 -54 16 -54 47
0 39 -28 66 -79 75 l-41 7 0 67 c0 38 -3 101 -6 142 l-6 74 52 60 c81 94 145
197 180 285 17 45 30 86 28 91 -2 5 -13 -19 -26 -53z"/>
<path d="M4385 15179 c-47 -25 -64 -39 -47 -39 7 0 17 -10 22 -22 5 -14 9 -17
9 -7 1 8 -4 20 -10 26 -7 7 -3 15 14 26 55 36 116 33 118 -6 1 -18 2 -19 6 -4
12 47 -46 61 -112 26z"/>
<path d="M4831 15185 c2 -11 15 -25 27 -31 13 -6 35 -22 50 -36 29 -26 74 -59
57 -42 -70 72 -137 126 -134 109z"/>
<path d="M4930 15196 c0 -2 8 -10 18 -17 15 -13 16 -12 3 4 -13 16 -21 21 -21
13z"/>
<path d="M6524 15095 c0 -60 1 -84 3 -52 2 32 2 81 0 110 -2 29 -3 3 -3 -58z"/>
<path d="M4301 15163 c-1 -24 -51 -51 -149 -79 -29 -9 -52 -18 -49 -20 5 -5
90 20 158 48 51 21 55 25 48 48 -6 23 -7 23 -8 3z"/>
<path d="M4505 15135 c-3 -26 -4 -49 -2 -51 3 -3 8 16 12 41 3 26 4 49 2 51
-3 3 -8 -16 -12 -41z"/>
<path d="M6603 15145 c0 -22 2 -30 4 -17 2 12 2 30 0 40 -3 9 -5 -1 -4 -23z"/>
<path d="M4755 15118 c22 -25 46 -47 54 -47 8 -1 12 0 10 2 -2 2 -26 23 -54
48 l-50 44 40 -47z"/>
<path d="M5875 15150 l70 -6 -47 -22 c-62 -29 -354 -104 -393 -100 -21 2 -31
-2 -33 -13 -4 -22 56 -107 98 -138 20 -15 29 -19 21 -8 -12 15 -11 20 3 36 48
53 279 111 325 82 20 -13 4 -46 -46 -102 -62 -68 -120 -83 -204 -54 -24 9 -39
12 -34 7 16 -15 75 -32 109 -32 110 1 226 146 226 282 0 70 -12 79 -102 76
l-63 -2 70 -6z"/>
<path d="M6421 15144 c0 -11 3 -14 6 -6 3 7 2 16 -1 19 -3 4 -6 -2 -5 -13z"/>
<path d="M4697 15125 c12 -16 30 -38 42 -49 11 -10 19 -22 16 -26 -2 -4 8 -13
23 -19 21 -10 15 -1 -28 46 -74 80 -76 82 -53 48z"/>
<path d="M5763 15143 c9 -2 23 -2 30 0 6 3 -1 5 -18 5 -16 0 -22 -2 -12 -5z"/>
<path d="M5015 15100 c21 -22 41 -40 44 -40 3 0 -13 18 -34 40 -21 22 -41 40
-44 40 -3 0 13 -18 34 -40z"/>
<path d="M5718 15133 c7 -3 16 -2 19 1 4 3 -2 6 -13 5 -11 0 -14 -3 -6 -6z"/>
<path d="M5678 15123 c7 -3 16 -2 19 1 4 3 -2 6 -13 5 -11 0 -14 -3 -6 -6z"/>
<path d="M4650 15116 c0 -2 8 -10 18 -17 15 -13 16 -12 3 4 -13 16 -21 21 -21
13z"/>
<path d="M4850 15116 c0 -2 8 -10 18 -17 15 -13 16 -12 3 4 -13 16 -21 21 -21
13z"/>
<path d="M6431 15104 c0 -11 3 -14 6 -6 3 7 2 16 -1 19 -3 4 -6 -2 -5 -13z"/>
<path d="M6742 15095 c0 -16 2 -22 5 -12 2 9 2 23 0 30 -3 6 -5 -1 -5 -18z"/>
<path d="M4371 15074 c-1 -11 8 -58 20 -103 21 -84 21 -98 -1 -206 -14 -72
-20 -83 -32 -61 -5 10 -5 23 2 36 6 11 7 20 2 20 -4 0 -13 -12 -19 -27 l-10
-28 -12 30 c-7 16 -11 56 -10 90 2 41 -3 70 -14 92 -9 18 -21 56 -27 85 l-9
53 4 -63 c3 -34 12 -73 21 -87 18 -27 15 -30 -36 -38 -17 -3 -14 -5 13 -6 l37
-1 0 -55 c0 -31 7 -69 15 -85 22 -43 75 -53 75 -13 0 10 6 13 16 9 9 -3 18 -6
21 -6 3 0 -6 -15 -19 -32 -25 -33 -78 -131 -78 -145 0 -4 15 18 33 48 69 113
90 140 98 127 5 -7 9 -22 9 -34 0 -20 54 -114 65 -114 7 0 -1 14 -28 51 -12
17 -21 50 -24 90 -5 62 -4 65 36 118 41 55 47 79 31 116 -7 15 -8 11 -4 -15 4
-27 0 -43 -20 -70 -14 -19 -34 -48 -43 -64 -40 -64 -49 -72 -68 -56 -14 11
-16 22 -10 55 13 69 9 137 -12 225 -12 47 -22 76 -22 64z"/>
<path d="M6592 15070 c0 -14 2 -19 5 -12 2 6 2 18 0 25 -3 6 -5 1 -5 -13z"/>
<path d="M4895 15062 c14 -15 27 -20 42 -16 13 4 20 10 17 15 -3 6 -12 5 -22
0 -12 -7 -23 -5 -37 7 l-20 16 20 -22z"/>
<path d="M4511 15055 c1 -11 7 -38 14 -60 l14 -40 -6 39 c-5 31 -2 42 12 53
11 7 14 13 8 13 -7 0 -15 -5 -19 -12 -5 -8 -10 -6 -15 8 -7 18 -8 18 -8 -1z"/>
<path d="M4064 15038 l-19 -23 23 19 c12 11 22 21 22 23 0 8 -8 2 -26 -19z"/>
<path d="M6373 15025 c0 -22 2 -30 4 -17 2 12 2 30 0 40 -3 9 -5 -1 -4 -23z"/>
<path d="M6451 15034 c0 -11 3 -14 6 -6 3 7 2 16 -1 19 -3 4 -6 -2 -5 -13z"/>
<path d="M6581 15014 c0 -11 3 -14 6 -6 3 7 2 16 -1 19 -3 4 -6 -2 -5 -13z"/>
<path d="M4621 14994 c0 -11 3 -14 6 -6 3 7 2 16 -1 19 -3 4 -6 -2 -5 -13z"/>
<path d="M6461 14994 c0 -11 3 -14 6 -6 3 7 2 16 -1 19 -3 4 -6 -2 -5 -13z"/>
<path d="M6732 14985 c0 -16 2 -22 5 -12 2 9 2 23 0 30 -3 6 -5 -1 -5 -18z"/>
<path d="M4025 14979 c-4 -6 -5 -12 -2 -15 2 -3 7 2 10 11 7 17 1 20 -8 4z"/>
<path d="M6383 14945 c0 -22 2 -30 4 -17 2 12 2 30 0 40 -3 9 -5 -1 -4 -23z"/>
<path d="M4630 14952 c0 -12 10 -32 21 -43 21 -21 23 -62 5 -139 -4 -14 0 -9
8 10 22 52 19 96 -9 148 -19 35 -25 41 -25 24z"/>
<path d="M6512 14945 c0 -16 2 -22 5 -12 2 9 2 23 0 30 -3 6 -5 -1 -5 -18z"/>
<path d="M6561 14934 c0 -11 3 -14 6 -6 3 7 2 16 -1 19 -3 4 -6 -2 -5 -13z"/>
<path d="M6741 14934 c0 -11 3 -14 6 -6 3 7 2 16 -1 19 -3 4 -6 -2 -5 -13z"/>
<path d="M3982 14878 c-28 -77 -72 -217 -72 -231 1 -7 23 53 49 133 48 143 61
201 23 98z"/>
<path d="M6486 14905 c2 -11 4 -26 4 -32 0 -7 5 -13 10 -13 6 0 10 9 10 20 0
11 -4 20 -9 20 -5 0 -11 6 -14 13 -2 6 -3 3 -1 -8z"/>
<path d="M6392 14880 c0 -14 2 -19 5 -12 2 6 2 18 0 25 -3 6 -5 1 -5 -13z"/>
<path d="M6752 14875 c0 -16 2 -22 5 -12 2 9 2 23 0 30 -3 6 -5 -1 -5 -18z"/>
<path d="M4831 14874 c0 -11 3 -14 6 -6 3 7 2 16 -1 19 -3 4 -6 -2 -5 -13z"/>
<path d="M6491 14834 c0 -11 3 -14 6 -6 3 7 2 16 -1 19 -3 4 -6 -2 -5 -13z"/>
<path d="M4841 14824 c0 -11 3 -14 6 -6 3 7 2 16 -1 19 -3 4 -6 -2 -5 -13z"/>
<path d="M6402 14820 c0 -14 2 -19 5 -12 2 6 2 18 0 25 -3 6 -5 1 -5 -13z"/>
<path d="M4851 14784 c0 -11 3 -14 6 -6 3 7 2 16 -1 19 -3 4 -6 -2 -5 -13z"/>
<path d="M4760 14785 c0 -5 5 -17 10 -25 5 -8 10 -10 10 -5 0 6 -5 17 -10 25
-5 8 -10 11 -10 5z"/>
<path d="M6761 14774 c0 -11 3 -14 6 -6 3 7 2 16 -1 19 -3 4 -6 -2 -5 -13z"/>
<path d="M4416 14764 c-9 -24 -2 -26 12 -4 7 11 8 20 3 20 -5 0 -12 -7 -15
-16z"/>
<path d="M6411 14764 c0 -11 3 -14 6 -6 3 7 2 16 -1 19 -3 4 -6 -2 -5 -13z"/>
<path d="M4861 14744 c0 -11 3 -14 6 -6 3 7 2 16 -1 19 -3 4 -6 -2 -5 -13z"/>
<path d="M5122 14740 c0 -14 2 -19 5 -12 2 6 2 18 0 25 -3 6 -5 1 -5 -13z"/>
<path d="M4643 14680 c0 -30 2 -43 4 -27 2 15 2 39 0 55 -2 15 -4 2 -4 -28z"/>
<path d="M6462 14725 c4 -4 -2 -21 -13 -36 -11 -16 -16 -29 -10 -29 6 0 17 13
26 29 12 23 12 31 2 37 -6 4 -9 4 -5 -1z"/>
<path d="M4871 14710 c0 -8 4 -24 9 -35 5 -13 9 -14 9 -5 0 8 -4 24 -9 35 -5
13 -9 14 -9 5z"/>
<path d="M6772 14700 c0 -14 2 -19 5 -12 2 6 2 18 0 25 -3 6 -5 1 -5 -13z"/>
<path d="M5132 14685 c0 -16 2 -22 5 -12 2 9 2 23 0 30 -3 6 -5 -1 -5 -18z"/>
<path d="M6782 14640 c0 -14 2 -19 5 -12 2 6 2 18 0 25 -3 6 -5 1 -5 -13z"/>
<path d="M5034 14560 c0 -52 1 -74 3 -47 2 26 2 68 0 95 -2 26 -3 4 -3 -48z"/>
<path d="M5143 14605 c0 -27 2 -38 4 -22 2 15 2 37 0 50 -2 12 -4 0 -4 -28z"/>
<path d="M7066 14620 c10 -38 45 -119 39 -89 -2 15 -14 46 -25 70 -11 24 -17
33 -14 19z"/>
<path d="M3895 14587 l-7 -44 -67 5 c-58 4 -81 0 -179 -34 -61 -20 -110 -39
-108 -41 2 -2 52 12 111 31 102 34 181 45 219 30 27 -11 18 -20 -34 -33 -52
-13 -106 -8 -95 9 13 21 -17 8 -42 -17 -37 -40 -64 -108 -72 -185 -4 -37 -9
-69 -12 -71 -2 -3 -24 -12 -49 -21 -25 -9 -34 -14 -20 -11 14 3 37 8 53 11 25
6 27 4 27 -27 0 -73 48 -201 96 -259 l24 -28 -36 -6 c-29 -6 -33 -10 -24 -21
21 -25 132 -75 167 -75 20 0 32 -4 28 -10 -3 -5 -30 -10 -58 -10 -50 0 -135
33 -192 74 -18 13 -38 9 -200 -39 -573 -172 -692 -203 -806 -215 -75 -8 -126
-9 -149 -3 -27 7 -46 5 -83 -9 -26 -10 -57 -18 -70 -18 -37 0 -163 66 -211
111 l-46 41 4 62 c5 81 17 104 84 163 102 88 128 103 299 172 230 93 323 134
318 139 -2 2 -41 -13 -87 -33 -46 -20 -128 -54 -183 -76 -220 -87 -244 -100
-331 -177 -92 -79 -97 -89 -115 -187 -12 -63 -12 -65 17 -107 49 -72 189 -211
249 -247 118 -72 181 -82 665 -106 343 -18 655 -47 745 -70 120 -31 260 -97
576 -272 l117 -64 -5 -62 c-7 -80 11 -240 37 -338 38 -147 52 -429 27 -574
-17 -97 -29 -203 -20 -170 3 11 9 22 13 25 4 3 12 48 17 100 10 93 10 94 11
30 3 -98 -16 -239 -33 -257 -26 -25 -43 -65 -54 -128 -9 -46 -22 -73 -64 -129
-75 -99 -178 -254 -201 -301 -11 -22 -27 -56 -36 -75 -10 -19 -34 -75 -55
-125 -21 -49 -48 -114 -61 -144 -14 -30 -23 -56 -20 -58 2 -2 22 38 44 89 23
51 59 132 81 180 l40 86 74 -23 c91 -29 444 -98 457 -90 6 3 10 12 10 18 0 8
-3 8 -9 -1 -7 -11 -37 -8 -167 18 -267 52 -369 83 -359 107 9 25 167 253 175
253 4 0 23 -6 41 -14 26 -11 362 -86 384 -86 3 0 5 -8 6 -17 0 -10 7 -1 16 20
8 21 14 40 11 42 -2 3 -75 18 -161 35 -179 34 -249 50 -259 59 -5 4 8 29 27
57 20 29 43 79 54 121 10 39 27 84 38 99 25 37 53 185 63 339 8 112 18 166 40
207 7 12 -3 41 -35 105 -58 118 -83 195 -100 311 -30 201 -15 383 55 671 17
69 29 129 27 134 -1 5 -18 -53 -36 -129 -18 -76 -35 -146 -38 -154 -19 -47
-47 400 -40 625 7 206 43 419 74 443 13 10 39 12 88 9 43 -3 58 -2 40 3 -72
18 -147 7 -205 -32 -28 -19 -154 -51 -179 -45 -9 2 15 19 59 41 185 95 330
255 346 383 3 30 1 26 -11 -17 -22 -77 -53 -126 -126 -197 -83 -80 -142 -125
-215 -161 -33 -16 -79 -41 -104 -55 -25 -14 -104 -42 -175 -61 -72 -19 -143
-39 -159 -46 -33 -12 -35 -11 -68 60 -15 32 -22 73 -26 146 -6 124 6 155 70
176 23 8 43 21 46 29 2 10 1 10 -5 2 -4 -6 -22 -15 -38 -19 l-30 -7 20 24 c15
18 12 17 -12 -5 -17 -15 -37 -41 -43 -57 -8 -19 -20 -29 -34 -29 -12 0 -16 -3
-10 -8 6 -4 14 -43 17 -87 8 -102 29 -170 70 -231 36 -55 108 -110 152 -118
29 -5 29 -5 -3 6 -33 11 -122 83 -122 98 0 4 53 22 118 40 64 17 144 40 177
52 33 11 100 26 149 34 55 9 106 23 134 39 25 14 46 24 48 22 2 -1 -9 -59 -24
-127 -26 -119 -27 -138 -27 -410 0 -216 5 -323 19 -443 11 -98 15 -162 9 -168
-6 -6 -93 48 -229 140 -120 81 -235 153 -254 159 -67 22 -226 41 -500 62 -486
37 -486 37 -157 150 78 27 142 54 142 61 0 7 59 27 145 50 151 39 187 51 359
117 67 26 115 52 137 73 40 38 95 163 93 211 -1 29 -2 27 -9 -13 -9 -55 -30
-96 -62 -125 -29 -27 -64 -45 -81 -43 -6 1 -19 -1 -27 -4 -8 -3 -46 -13 -85
-20 -81 -16 -97 -12 -157 47 -81 79 -120 186 -117 326 1 47 8 106 15 131 l14
46 97 33 c54 18 104 35 111 38 8 3 10 -2 6 -14 -4 -15 -3 -16 4 -4 12 19 35
140 28 147 -2 3 -8 -15 -11 -40z m670 -3258 c105 -21 191 -39 193 -39 4 0 2
-30 -2 -30 -19 0 -349 72 -380 83 -44 15 -67 45 -25 33 13 -4 110 -25 214 -47z"/>
<path d="M6415 14619 c-4 -6 -5 -12 -2 -15 2 -3 7 2 10 11 7 17 1 20 -8 4z"/>
<path d="M6792 14580 c0 -14 2 -19 5 -12 2 6 2 18 0 25 -3 6 -5 1 -5 -13z"/>
<path d="M6369 14529 c-16 -34 -29 -63 -27 -65 2 -2 18 26 36 61 17 36 30 65
27 65 -3 0 -19 -27 -36 -61z"/>
<path d="M6802 14530 c0 -14 2 -19 5 -12 2 6 2 18 0 25 -3 6 -5 1 -5 -13z"/>
<path d="M6531 14504 c0 -11 3 -14 6 -6 3 7 2 16 -1 19 -3 4 -6 -2 -5 -13z"/>
<path d="M6577 14496 c-4 -10 -3 -15 3 -11 6 3 10 1 10 -6 0 -7 3 -10 6 -6 3
3 2 13 -4 22 -8 16 -9 16 -15 1z"/>
<path d="M6811 14474 c0 -11 3 -14 6 -6 3 7 2 16 -1 19 -3 4 -6 -2 -5 -13z"/>
<path d="M6880 14465 c0 -5 5 -17 10 -25 5 -8 10 -10 10 -5 0 6 -5 17 -10 25
-5 8 -10 11 -10 5z"/>
<path d="M3468 14453 c7 -3 16 -2 19 1 4 3 -2 6 -13 5 -11 0 -14 -3 -6 -6z"/>
<path d="M6522 14435 c0 -16 2 -22 5 -12 2 9 2 23 0 30 -3 6 -5 -1 -5 -18z"/>
<path d="M3418 14443 c6 -2 18 -2 25 0 6 3 1 5 -13 5 -14 0 -19 -2 -12 -5z"/>
<path d="M6822 14435 c0 -11 4 -31 8 -45 6 -20 8 -21 8 -5 0 11 -4 31 -8 45
-6 20 -8 21 -8 5z"/>
<path d="M3240 14408 c-69 -17 -120 -32 -115 -34 6 -2 71 12 145 30 74 19 126
34 115 34 -11 1 -76 -13 -145 -30z"/>
<path d="M5022 14416 c-2 -28 -3 -29 -17 -10 -8 10 -15 14 -15 8 0 -5 14 -23
32 -40 18 -16 27 -22 21 -14 -6 8 -13 31 -16 50 -3 32 -4 32 -5 6z"/>
<path d="M4772 14343 c2 -78 2 -78 5 -15 3 40 8 60 14 56 7 -4 7 1 0 15 -7 11
-14 21 -16 21 -3 0 -4 -35 -3 -77z"/>
<path d="M6900 14415 c0 -5 5 -17 10 -25 5 -8 10 -10 10 -5 0 6 -5 17 -10 25
-5 8 -10 11 -10 5z"/>
<path d="M3407 14352 c-33 -35 -43 -80 -24 -107 14 -18 17 -18 42 -5 35 19 57
52 49 74 -5 13 -10 10 -28 -17 -28 -41 -56 -48 -56 -14 0 39 10 56 40 72 29
15 40 10 53 -25 4 -11 6 -9 6 6 2 48 -43 57 -82 16z m63 -55 c0 -2 -10 -12
-22 -23 l-23 -19 19 23 c18 21 26 27 26 19z"/>
<path d="M3088 14363 c7 -3 16 -2 19 1 4 3 -2 6 -13 5 -11 0 -14 -3 -6 -6z"/>
<path d="M6920 14365 c0 -5 5 -17 10 -25 5 -8 10 -10 10 -5 0 6 -5 17 -10 25
-5 8 -10 11 -10 5z"/>
<path d="M6841 14344 c0 -11 3 -14 6 -6 3 7 2 16 -1 19 -3 4 -6 -2 -5 -13z"/>
<path d="M2995 14340 c-13 -5 -14 -9 -5 -9 8 0 24 4 35 9 13 5 14 9 5 9 -8 0
-24 -4 -35 -9z"/>
<path d="M6640 14345 c0 -5 5 -17 10 -25 5 -8 10 -10 10 -5 0 6 -5 17 -10 25
-5 8 -10 11 -10 5z"/>
<path d="M3206 14297 c-30 -30 -43 -74 -29 -96 31 -50 114 8 109 77 -2 32 -5
37 -29 40 -18 2 -35 -5 -51 -21z m67 -19 c5 -33 -8 -62 -23 -53 -5 3 -11 1
-15 -5 -3 -5 -15 -10 -26 -10 -28 0 -25 45 6 75 33 34 52 32 58 -7z"/>
<path d="M3257 14253 c-4 -3 -7 -11 -7 -17 0 -6 5 -5 12 2 6 6 9 14 7 17 -3 3
-9 2 -12 -2z"/>
<path d="M6851 14304 c0 -11 3 -14 6 -6 3 7 2 16 -1 19 -3 4 -6 -2 -5 -13z"/>
<path d="M6940 14315 c0 -5 5 -17 10 -25 5 -8 10 -10 10 -5 0 6 -5 17 -10 25
-5 8 -10 11 -10 5z"/>
<path d="M7210 14311 c0 -6 4 -13 10 -16 6 -3 7 1 4 9 -7 18 -14 21 -14 7z"/>
<path d="M6520 14265 c0 -19 2 -35 4 -35 2 0 6 16 8 35 2 19 0 35 -4 35 -4 0
-8 -16 -8 -35z"/>
<path d="M6660 14296 c0 -13 62 -157 66 -153 2 2 -10 37 -27 78 -31 74 -39 89
-39 75z"/>
<path d="M2805 14275 c-25 -12 -26 -14 -5 -9 28 7 60 23 45 23 -5 0 -23 -6
-40 -14z"/>
<path d="M6861 14270 c0 -8 4 -24 9 -35 5 -13 9 -14 9 -5 0 8 -4 24 -9 35 -5
13 -9 14 -9 5z"/>
<path d="M4869 14266 c-2 -2 -31 -7 -64 -11 -87 -9 -154 -22 -125 -24 38 -2
184 21 195 31 5 4 7 8 4 8 -3 0 -8 -2 -10 -4z"/>
<path d="M5573 14193 c-42 -43 -109 -120 -151 -171 -83 -103 -88 -104 -124
-27 l-19 40 7 -34 c3 -19 17 -46 31 -60 l24 -26 32 35 c18 20 70 80 116 133
46 53 86 96 88 93 2 -2 5 -55 6 -119 1 -77 6 -120 15 -129 18 -18 15 -54 -18
-218 -37 -185 -42 -206 -100 -415 -26 -93 -55 -204 -65 -245 -16 -63 -20 -71
-26 -49 -11 43 -58 382 -74 534 l-14 140 5 -109 c6 -124 25 -277 84 -651 66
-420 77 -479 141 -715 34 -124 69 -265 79 -315 10 -49 19 -79 19 -65 0 14 -6
53 -13 88 l-14 63 132 137 c73 75 222 227 332 337 197 198 356 375 437 487 23
32 50 58 59 58 10 0 52 -9 94 -21 41 -11 78 -18 81 -16 9 10 15 86 9 111 -5
20 -16 28 -51 37 -25 6 -47 15 -50 19 -2 4 9 33 25 64 17 31 30 61 30 66 0 4
-39 38 -86 75 -100 79 -107 58 63 202 61 53 114 102 117 109 6 16 -70 242
-111 331 -15 32 -29 62 -32 67 -5 13 291 -143 391 -205 100 -62 196 -138 204
-161 7 -22 -3 -40 -72 -130 -57 -75 -290 -526 -334 -646 -13 -34 -24 -61 -26
-59 -2 1 0 79 5 172 7 160 6 184 -3 174 -2 -2 -9 -100 -15 -218 -17 -321 -35
-422 -108 -605 -33 -85 -41 -97 -69 -106 -49 -17 -69 -45 -139 -205 -37 -83
-70 -154 -75 -160 -12 -16 -58 -203 -70 -290 -7 -44 -13 -123 -13 -175 -1 -94
-1 -96 51 -212 29 -64 52 -120 52 -124 0 -6 -112 0 -227 13 l-53 6 2 -139 c2
-137 2 -138 5 -30 l4 109 82 -6 c45 -4 112 -7 148 -7 l66 0 41 -133 c23 -73
42 -141 42 -150 0 -31 -46 -33 -293 -10 -57 5 -70 9 -78 27 -8 20 -9 19 -6 -4
2 -24 6 -25 107 -37 58 -6 143 -12 190 -12 l86 -1 18 -72 c10 -40 70 -212 133
-383 89 -240 283 -824 283 -850 0 -17 -81 -27 -401 -51 l-363 -27 -211 17
c-367 29 -602 54 -623 65 -26 14 -37 48 -62 195 -28 167 -28 178 18 291 72
180 224 663 221 705 0 8 -11 -23 -23 -70 -68 -256 -256 -780 -344 -955 -57
-115 -66 -125 -118 -125 -89 0 -338 71 -624 178 -74 28 -218 81 -320 117 -284
102 -450 186 -450 226 0 11 43 126 95 256 52 130 93 238 91 240 -5 6 -196
-475 -196 -494 0 -9 7 -24 15 -33 13 -14 10 -29 -31 -131 -130 -329 -234 -734
-373 -1446 -6 -32 -5 -43 5 -47 10 -4 12 -17 8 -48 -5 -33 0 -59 21 -110 15
-38 31 -65 36 -62 5 3 30 -11 55 -30 55 -43 157 -92 207 -101 35 -7 37 -9 39
-49 l1 -41 4 38 4 37 130 0 c91 0 129 3 129 12 0 15 260 4 387 -17 138 -22
245 -68 391 -167 l42 -29 0 29 0 30 70 -27 c38 -15 72 -30 75 -32 2 -3 -5 -49
-16 -103 -11 -54 -18 -103 -16 -109 2 -6 13 38 25 98 12 59 23 110 25 111 1 2
30 -4 62 -13 93 -26 243 -22 410 10 77 15 150 30 162 33 15 4 22 1 26 -13 4
-15 5 -15 6 -1 0 9 9 19 19 21 134 37 357 57 659 58 147 0 309 4 358 8 50 4
95 4 101 0 11 -9 111 14 161 37 17 7 36 14 41 14 6 0 12 5 14 12 3 7 54 16
141 24 222 19 337 36 337 49 0 7 37 21 82 32 76 18 88 19 143 6 35 -8 86 -31
124 -55 l63 -42 18 24 c18 23 18 25 -1 51 -10 15 -19 34 -19 42 0 8 -39 60
-86 114 -257 293 -366 443 -513 707 l-33 59 29 -7 c151 -36 456 93 532 225 31
55 25 60 -8 7 -75 -118 -287 -218 -461 -218 -41 0 -80 4 -85 8 -17 11 -62 93
-148 265 l-79 159 21 19 c11 11 18 25 16 32 -2 6 -29 93 -59 192 -89 291 -184
560 -293 835 -50 124 -76 213 -88 301 l-7 46 74 35 c75 36 198 122 198 139 0
6 -6 6 -12 2 -7 -4 -54 -35 -103 -68 -114 -76 -153 -94 -166 -74 -13 21 -69
198 -69 219 0 11 8 41 19 67 11 28 21 89 25 148 10 158 36 363 56 455 47 206
92 399 106 448 9 29 14 65 13 80 -2 15 12 65 30 112 38 98 76 262 86 370 4 51
18 103 41 160 46 112 258 533 298 591 74 108 112 158 119 159 21 1 -37 -483
-147 -1225 -80 -541 -126 -972 -126 -1189 0 -114 -4 -164 -16 -200 -9 -26 -14
-50 -11 -53 3 -3 11 15 18 39 7 23 15 47 19 51 21 25 144 -230 229 -475 33
-97 89 -247 124 -334 35 -88 74 -190 87 -227 12 -38 24 -66 26 -64 6 5 -44
147 -116 327 -31 80 -77 202 -101 272 -43 127 -43 127 -23 150 15 18 16 20 1
9 -9 -8 -19 -12 -22 -10 -8 9 -45 101 -45 115 0 8 -4 14 -10 14 -5 0 -10 7
-10 15 0 8 5 15 10 15 6 0 10 18 10 40 0 53 -18 51 -22 -2 l-3 -43 -38 74
c-21 41 -47 87 -58 102 -10 15 -19 32 -19 38 0 6 -3 11 -7 11 -17 0 4 426 33
670 25 216 64 498 94 685 28 172 61 413 76 540 3 33 8 69 11 80 11 55 44 354
49 453 7 119 4 133 -42 197 -11 17 -36 57 -53 90 -33 62 -35 59 -6 -9 l17 -40
-24 17 c-79 57 -219 138 -357 207 -88 44 -180 98 -206 120 -49 43 -55 46 -55
30 0 -5 6 -10 14 -10 40 0 108 -126 180 -334 35 -100 42 -131 33 -140 -10 -9
-136 -122 -237 -212 l-25 -23 -105 76 c-99 70 -157 108 -135 86 6 -6 55 -42
110 -80 120 -85 299 -221 303 -231 4 -12 -111 -201 -176 -289 -99 -132 -253
-302 -513 -564 -134 -135 -278 -285 -319 -332 -46 -54 -77 -82 -81 -74 -3 7
-16 53 -28 103 l-23 91 45 109 c25 60 80 181 122 269 162 336 316 698 384 897
38 114 49 138 66 139 17 1 17 2 3 6 -22 5 -22 6 -3 88 9 37 14 72 12 78 -2 6
-11 -27 -21 -74 -35 -162 -118 -390 -249 -687 l-54 -123 0 323 c0 240 -4 359
-16 461 -19 155 -21 227 -8 227 14 0 62 110 75 172 6 31 15 60 18 64 4 3 40
-62 79 -145 52 -108 78 -151 90 -151 9 0 38 23 63 51 41 46 46 49 47 28 1 -13
5 -4 10 20 10 54 5 63 -14 24 -19 -36 -95 -115 -107 -111 -5 2 -39 64 -75 138
-101 205 -131 250 -163 249 l-27 -1 25 -7 24 -7 -31 -22 c-37 -26 -37 -26 -58
-5 -13 12 -19 13 -24 4 -11 -16 -60 -4 -88 22 -30 27 -29 35 5 40 l27 4 -28 2
c-23 1 -43 -14 -104 -76z m297 -43 c12 -7 11 -10 -5 -16 -84 -30 -178 -70
-222 -94 -56 -30 -71 -21 -30 18 28 26 193 102 222 102 11 0 27 -4 35 -10z
m-54 -475 c-6 -18 -270 -216 -274 -207 -1 4 4 27 11 52 12 41 25 54 137 142
l125 98 3 -36 c2 -20 1 -42 -2 -49z m24 -534 c0 -28 -8 -34 -127 -95 -71 -36
-166 -90 -213 -120 -82 -53 -85 -54 -92 -33 -11 39 -9 44 35 73 42 29 375 203
390 204 4 0 7 -13 7 -29z m859 -52 c30 -10 31 -13 31 -65 0 -63 0 -63 -102
-36 l-67 17 30 48 c34 50 50 56 108 36z m-1094 -731 c-11 -37 -33 -66 -55 -73
-25 -8 -27 -7 -35 25 -5 22 -1 28 37 47 55 28 61 28 53 1z m717 -1284 c90 -5
118 -10 123 -22 5 -13 -11 -14 -122 -8 -146 8 -163 11 -163 33 0 11 6 14 23
10 12 -3 75 -9 139 -13z m-2362 -1319 l35 -14 -40 6 c-22 3 -44 9 -49 14 -15
13 13 10 54 -6z m-150 -239 c0 -3 -11 -51 -24 -108 -13 -57 -27 -119 -30 -139
-8 -44 -7 -44 132 -55 72 -5 92 -10 92 -22 0 -13 -12 -14 -82 -8 -46 4 -99 9
-119 12 l-36 6 -11 -58 c-6 -33 -16 -99 -23 -149 -12 -91 -20 -112 -36 -102
-6 4 -2 53 10 119 10 62 20 136 22 163 2 28 8 61 14 75 6 14 22 77 37 140 15
63 28 118 31 123 4 7 23 10 23 3z m1516 -30 c1 0 4 -13 8 -28 l6 -28 -85 0
c-48 0 -84 4 -81 9 3 4 10 19 15 33 9 23 13 24 73 20 34 -2 63 -5 64 -6z
m-910 -60 c3 -7 -2 -64 -10 -125 -19 -135 -19 -141 -3 -141 6 0 36 -11 66 -25
57 -27 201 -158 201 -183 0 -8 -31 15 -69 50 -64 61 -149 113 -196 120 -19 3
-21 -7 -34 -144 -14 -138 -16 -148 -35 -148 -43 0 -45 8 -30 135 19 168 18
174 -8 180 -13 3 -86 11 -163 18 -111 10 -140 15 -140 27 0 17 35 17 218 -1
60 -6 111 -9 113 -6 3 3 12 49 20 103 21 148 23 154 45 154 11 0 22 -6 25 -14z
m1323 -255 c44 -168 59 -222 62 -224 4 -3 50 -17 272 -82 59 -17 113 -37 120
-44 17 -17 -32 -7 -193 39 -169 49 -190 54 -190 45 0 -7 76 -253 87 -282 5
-12 -2 -13 -33 -7 -22 3 -42 9 -46 13 -4 3 -26 69 -49 146 -23 77 -47 144 -53
148 -9 7 -159 3 -275 -6 -29 -2 -39 18 -14 28 10 4 79 9 154 12 l136 6 -29
109 c-37 144 -37 145 7 140 30 -4 36 -9 44 -41z m764 -46 c11 -36 88 -235 90
-235 1 0 58 11 127 25 93 18 126 21 132 12 5 -8 -29 -20 -114 -40 -67 -15
-124 -29 -126 -32 -2 -2 25 -64 62 -137 36 -73 66 -136 66 -140 0 -5 -11 -8
-24 -8 -22 0 -33 17 -92 138 -37 75 -67 138 -68 139 0 1 -24 -3 -51 -8 -119
-21 -115 -21 -109 -5 3 8 33 20 71 27 36 7 67 18 69 24 3 6 -6 36 -19 66 -37
84 -69 187 -62 199 12 20 38 6 48 -25z m-1672 -198 c-13 -13 -141 49 -141 67
0 12 16 8 75 -21 41 -21 71 -41 66 -46z m569 -12 c0 -9 -9 -15 -22 -16 -13 0
-58 -4 -100 -7 -57 -6 -78 -4 -78 4 0 7 29 16 68 21 104 16 132 15 132 -2z
m-1930 -235 c1 -8 2 -26 1 -39 -1 -20 -3 -21 -16 -11 -16 13 -19 38 -9 65 7
18 21 9 24 -15z m140 -125 c0 -38 -2 -40 -31 -25 -18 10 -27 59 -13 73 16 16
44 -15 44 -48z m309 9 c2 -1 0 -19 -3 -39 l-7 -35 -88 0 c-49 0 -103 3 -120 6
-28 6 -31 10 -31 43 l0 36 122 -4 c68 -1 125 -5 127 -7z m323 -1 c25 -5 28
-10 28 -45 l0 -40 -87 6 c-49 4 -125 9 -170 12 -78 6 -83 8 -83 29 0 58 1 58
149 51 74 -4 148 -10 163 -13z m264 -85 c30 -17 83 -59 119 -91 56 -51 65 -63
65 -94 l0 -35 -57 47 c-88 71 -162 117 -228 141 -41 15 -60 27 -59 38 0 9 1
27 2 41 l2 25 51 -20 c28 -10 76 -34 105 -52z m2984 -102 c0 -5 -3 -6 -7 -3
-3 4 -13 -2 -20 -13 -14 -20 -39 -19 -27 1 3 5 10 7 15 3 7 -4 9 8 5 32 l-6
39 20 -25 c11 -14 20 -29 20 -34z m-277 2 l14 -23 -126 -31 -126 -31 -27 25
c-15 14 -26 27 -24 29 9 10 196 52 232 52 33 1 45 -4 57 -21z m149 -5 c29 -26
22 -33 -35 -33 -44 0 -58 4 -77 25 l-23 25 58 0 c40 0 64 -5 77 -17z m-2565
-32 c49 -21 104 -44 124 -50 20 -7 40 -20 43 -29 3 -9 9 -23 12 -29 7 -16 -30
-17 -77 -2 -106 34 -188 73 -193 93 -7 26 -8 56 -1 56 3 0 44 -17 92 -39z
m1074 23 c28 -5 40 -13 52 -39 l15 -32 -181 -6 c-100 -4 -191 -8 -201 -9 -15
-2 -21 5 -27 32 -4 19 -7 36 -6 37 2 1 36 6 77 11 90 11 221 14 271 6z m-359
-59 c4 -16 5 -31 3 -33 -2 -3 -46 -11 -96 -19 -76 -12 -93 -13 -100 -1 -15 23
-10 46 11 53 32 10 154 33 164 31 6 -1 13 -15 18 -31z m676 -1 c91 -21 198
-38 254 -41 87 -5 100 -9 120 -31 l23 -24 -135 5 c-87 3 -181 14 -264 31 -72
14 -131 26 -133 26 -3 0 -33 57 -33 65 0 8 0 8 168 -31z m692 2 l23 -25 -24
-5 c-13 -3 -82 -17 -152 -31 l-128 -26 -19 23 c-18 23 -18 23 8 32 44 15 215
54 243 55 15 1 35 -9 49 -23z m-3245 -76 c4 -6 3 -65 0 -130 -7 -108 -9 -120
-26 -120 -16 0 -19 8 -19 53 0 108 12 207 26 207 7 0 16 -5 19 -10z m689 -16
c13 -5 16 -26 16 -131 l0 -124 -37 3 -38 3 -3 128 -3 127 25 0 c13 0 31 -3 40
-6z m2899 -136 c77 -57 78 -58 45 -58 -25 0 -54 15 -113 57 -73 53 -77 58 -55
64 30 7 26 9 123 -63z m427 7 l45 -50 -47 45 c-27 24 -48 48 -48 54 0 5 1 7 3
5 1 -2 22 -27 47 -54z m-1515 -25 c18 0 34 -20 79 -94 31 -52 56 -97 56 -100
0 -3 -26 -6 -58 -6 l-58 0 -52 99 c-29 54 -52 102 -52 106 0 4 14 5 31 1 17
-3 42 -6 54 -6z m-983 -205 c22 -133 23 -125 -17 -125 -19 0 -35 3 -35 8 0 4
-7 52 -15 107 -8 55 -15 104 -15 108 0 5 15 7 32 5 l33 -3 17 -100z"/>
<path d="M6282 14250 c0 -14 2 -19 5 -12 2 6 2 18 0 25 -3 6 -5 1 -5 -13z"/>
<path d="M6353 14235 c0 -22 2 -30 4 -17 2 12 2 30 0 40 -3 9 -5 -1 -4 -23z"/>
<path d="M4941 14234 c0 -11 3 -14 6 -6 3 7 2 16 -1 19 -3 4 -6 -2 -5 -13z"/>
<path d="M6970 14245 c0 -5 5 -17 10 -25 5 -8 10 -10 10 -5 0 6 -5 17 -10 25
-5 8 -10 11 -10 5z"/>
<path d="M4858 14202 c-36 -39 -147 -204 -188 -279 l-23 -42 41 -53 c41 -54
196 -220 171 -183 -8 10 -56 68 -107 128 -51 61 -89 114 -86 120 46 81 157
252 191 294 50 62 51 70 1 15z"/>
<path d="M6532 14200 c0 -14 2 -19 5 -12 2 6 2 18 0 25 -3 6 -5 1 -5 -13z"/>
<path d="M6881 14194 c0 -11 3 -14 6 -6 3 7 2 16 -1 19 -3 4 -6 -2 -5 -13z"/>
<path d="M3440 14179 c-54 -19 -169 -49 -400 -104 -249 -59 -976 -303 -957
-321 2 -2 25 5 52 17 70 31 578 201 740 248 77 22 210 56 295 76 143 32 340
91 340 101 0 7 -12 4 -70 -17z"/>
<path d="M7001 14175 c0 -5 6 -21 14 -35 8 -14 14 -20 14 -15 0 6 -6 21 -14
35 -8 14 -14 21 -14 15z"/>
<path d="M6351 14110 c0 -25 3 -51 8 -59 5 -8 7 5 4 35 -6 68 -11 77 -12 24z"/>
<path d="M4959 14072 c5 -34 6 -35 9 -8 2 16 0 32 -5 37 -5 5 -7 -7 -4 -29z"/>
<path d="M5164 14010 c0 -52 1 -74 3 -47 2 26 2 68 0 95 -2 26 -3 4 -3 -48z"/>
<path d="M7050 14065 c0 -5 5 -17 10 -25 5 -8 10 -10 10 -5 0 6 -5 17 -10 25
-5 8 -10 11 -10 5z"/>
<path d="M6222 14030 c0 -19 2 -27 5 -17 2 9 2 25 0 35 -3 9 -5 1 -5 -18z"/>
<path d="M6352 14000 c0 -14 2 -19 5 -12 2 6 2 18 0 25 -3 6 -5 1 -5 -13z"/>
<path d="M6371 13894 c0 -11 3 -14 6 -6 3 7 2 16 -1 19 -3 4 -6 -2 -5 -13z"/>
<path d="M5152 13870 c0 -14 2 -19 5 -12 2 6 2 18 0 25 -3 6 -5 1 -5 -13z"/>
<path d="M6185 13845 c-3 -26 -4 -49 -2 -51 3 -3 8 16 12 41 3 26 4 49 2 51
-3 3 -8 -16 -12 -41z"/>
<path d="M5092 13860 c0 -14 2 -19 5 -12 2 6 2 18 0 25 -3 6 -5 1 -5 -13z"/>
<path d="M5288 13794 c-2 -47 0 -93 4 -102 4 -9 7 29 7 86 1 56 -1 102 -3 102
-3 0 -6 -39 -8 -86z"/>
<path d="M5141 13814 c0 -11 3 -14 6 -6 3 7 2 16 -1 19 -3 4 -6 -2 -5 -13z"/>
<path d="M6350 13811 c0 -6 4 -13 10 -16 6 -3 7 1 4 9 -7 18 -14 21 -14 7z"/>
<path d="M6639 13803 c-13 -16 -12 -17 4 -4 16 13 21 21 13 21 -2 0 -10 -8
-17 -17z"/>
<path d="M5131 13774 c0 -11 3 -14 6 -6 3 7 2 16 -1 19 -3 4 -6 -2 -5 -13z"/>
<path d="M7510 13786 c0 -2 8 -10 18 -17 15 -13 16 -12 3 4 -13 16 -21 21 -21
13z"/>
<path d="M6370 13771 c0 -6 4 -13 10 -16 6 -3 7 1 4 9 -7 18 -14 21 -14 7z"/>
<path d="M6599 13763 c-13 -16 -12 -17 4 -4 16 13 21 21 13 21 -2 0 -10 -8
-17 -17z"/>
<path d="M5071 13714 c0 -11 3 -14 6 -6 3 7 2 16 -1 19 -3 4 -6 -2 -5 -13z"/>
<path d="M5143 13719 c-18 -5 -33 -12 -33 -15 0 -3 10 -2 23 2 12 4 49 10 82
14 l60 7 -50 1 c-27 0 -65 -4 -82 -9z"/>
<path d="M6510 13661 c0 -6 4 -13 10 -16 6 -3 7 1 4 9 -7 18 -14 21 -14 7z"/>
<path d="M6460 13641 c0 -6 4 -13 10 -16 6 -3 7 1 4 9 -7 18 -14 21 -14 7z"/>
<path d="M4788 13569 c-21 -11 -38 -22 -38 -24 0 -3 18 4 40 15 22 11 40 23
40 25 0 7 0 7 -42 -16z"/>
<path d="M4940 13556 c0 -2 8 -10 18 -17 15 -13 16 -12 3 4 -13 16 -21 21 -21
13z"/>
<path d="M7690 13546 c0 -2 8 -10 18 -17 15 -13 16 -12 3 4 -13 16 -21 21 -21
13z"/>
<path d="M4700 13519 c-17 -13 -18 -17 -5 -10 33 17 51 31 40 31 -5 0 -21 -10
-35 -21z"/>
<path d="M5007 13496 c-3 -8 -2 -18 3 -21 13 -8 20 9 11 24 -6 10 -10 9 -14
-3z"/>
<path d="M7730 13496 c0 -2 8 -10 18 -17 15 -13 16 -12 3 4 -13 16 -21 21 -21
13z"/>
<path d="M4686 13460 c21 -138 128 -400 314 -770 193 -385 257 -492 439 -729
89 -116 164 -211 166 -211 3 0 -67 95 -154 211 -179 238 -257 368 -441 734
-180 356 -225 464 -318 765 l-11 35 5 -35z"/>
<path d="M4531 13464 c0 -11 3 -14 6 -6 3 7 2 16 -1 19 -3 4 -6 -2 -5 -13z"/>
<path d="M7790 13425 c13 -14 26 -25 28 -25 3 0 -5 11 -18 25 -13 14 -26 25
-28 25 -3 0 5 -11 18 -25z"/>
<path d="M7850 13355 c13 -14 26 -25 28 -25 3 0 -5 11 -18 25 -13 14 -26 25
-28 25 -3 0 5 -11 18 -25z"/>
<path d="M7950 13326 c0 -2 8 -10 18 -17 15 -13 16 -12 3 4 -13 16 -21 21 -21
13z"/>
<path d="M7790 12886 c0 -2 8 -10 18 -17 15 -13 16 -12 3 4 -13 16 -21 21 -21
13z"/>
<path d="M8435 12750 c27 -27 51 -50 54 -50 3 0 -17 23 -44 50 -27 28 -51 50
-54 50 -3 0 17 -22 44 -50z"/>
<path d="M7960 12666 c0 -2 8 -10 18 -17 15 -13 16 -12 3 4 -13 16 -21 21 -21
13z"/>
<path d="M8585 12600 c27 -27 51 -50 54 -50 3 0 -17 23 -44 50 -27 28 -51 50
-54 50 -3 0 17 -22 44 -50z"/>
<path d="M7990 12626 c0 -2 8 -10 18 -17 15 -13 16 -12 3 4 -13 16 -21 21 -21
13z"/>
<path d="M4001 12594 c0 -11 3 -14 6 -6 3 7 2 16 -1 19 -3 4 -6 -2 -5 -13z"/>
<path d="M3991 12544 c0 -11 3 -14 6 -6 3 7 2 16 -1 19 -3 4 -6 -2 -5 -13z"/>
<path d="M3981 12494 c0 -11 3 -14 6 -6 3 7 2 16 -1 19 -3 4 -6 -2 -5 -13z"/>
<path d="M8670 12506 c0 -2 8 -10 18 -17 15 -13 16 -12 3 4 -13 16 -21 21 -21
13z"/>
<path d="M8715 12450 c10 -11 20 -20 23 -20 3 0 -3 9 -13 20 -10 11 -20 20
-23 20 -3 0 3 -9 13 -20z"/>
<path d="M8120 12456 c0 -2 8 -10 18 -17 15 -13 16 -12 3 4 -13 16 -21 21 -21
13z"/>
<path d="M3972 12420 c0 -14 2 -19 5 -12 2 6 2 18 0 25 -3 6 -5 1 -5 -13z"/>
<path d="M8830 12426 c0 -2 8 -10 18 -17 15 -13 16 -12 3 4 -13 16 -21 21 -21
13z"/>
<path d="M8750 12406 c0 -2 8 -10 18 -17 15 -13 16 -12 3 4 -13 16 -21 21 -21
13z"/>
<path d="M8210 12336 c0 -2 8 -10 18 -17 15 -13 16 -12 3 4 -13 16 -21 21 -21
13z"/>
<path d="M3963 12255 c0 -38 2 -53 4 -32 2 20 2 52 0 70 -2 17 -4 1 -4 -38z"/>
<path d="M3892 12275 c0 -16 2 -22 5 -12 2 9 2 23 0 30 -3 6 -5 -1 -5 -18z"/>
<path d="M8240 12296 c0 -2 8 -10 18 -17 15 -13 16 -12 3 4 -13 16 -21 21 -21
13z"/>
<path d="M4241 12254 c0 -11 3 -14 6 -6 3 7 2 16 -1 19 -3 4 -6 -2 -5 -13z"/>
<path d="M8970 12266 c0 -2 8 -10 18 -17 15 -13 16 -12 3 4 -13 16 -21 21 -21
13z"/>
<path d="M4231 12214 c0 -11 3 -14 6 -6 3 7 2 16 -1 19 -3 4 -6 -2 -5 -13z"/>
<path d="M4211 12146 c-13 -55 -14 -73 -2 -60 9 10 25 104 18 104 -3 0 -10
-20 -16 -44z"/>
<path d="M7810 12170 c6 -11 13 -20 16 -20 2 0 0 9 -6 20 -6 11 -13 20 -16 20
-2 0 0 -9 6 -20z"/>
<path d="M7536 12000 c9 -47 33 -110 33 -85 -1 11 -9 43 -20 70 -15 40 -18 43
-13 15z"/>
<path d="M3992 11980 c0 -14 2 -19 5 -12 2 6 2 18 0 25 -3 6 -5 1 -5 -13z"/>
<path d="M4171 11974 c0 -11 3 -14 6 -6 3 7 2 16 -1 19 -3 4 -6 -2 -5 -13z"/>
<path d="M3982 11915 c0 -16 2 -22 5 -12 2 9 2 23 0 30 -3 6 -5 -1 -5 -18z"/>
<path d="M4181 11874 c0 -11 3 -14 6 -6 3 7 2 16 -1 19 -3 4 -6 -2 -5 -13z"/>
<path d="M4152 11860 c0 -14 2 -19 5 -12 2 6 2 18 0 25 -3 6 -5 1 -5 -13z"/>
<path d="M7191 11854 c0 -11 3 -14 6 -6 3 7 2 16 -1 19 -3 4 -6 -2 -5 -13z"/>
<path d="M3972 11840 c0 -14 2 -19 5 -12 2 6 2 18 0 25 -3 6 -5 1 -5 -13z"/>
<path d="M4142 11800 c0 -14 2 -19 5 -12 2 6 2 18 0 25 -3 6 -5 1 -5 -13z"/>
<path d="M4172 11785 c0 -16 2 -22 5 -12 2 9 2 23 0 30 -3 6 -5 -1 -5 -18z"/>
<path d="M3962 11750 c0 -19 2 -27 5 -17 2 9 2 25 0 35 -3 9 -5 1 -5 -18z"/>
<path d="M5634 11620 c0 -91 2 -128 3 -82 2 45 2 119 0 165 -1 45 -3 8 -3 -83z"/>
<path d="M5435 11763 c-56 -15 -90 -65 -82 -124 3 -30 4 -29 5 9 4 111 151
143 201 45 37 -72 -34 -164 -114 -149 -18 4 -45 19 -60 34 -24 23 -26 24 -16
5 18 -34 52 -53 96 -53 72 0 122 59 112 132 -6 46 -29 75 -74 94 -34 15 -36
15 -68 7z"/>
<path d="M7212 11740 c0 -14 2 -19 5 -12 2 6 2 18 0 25 -3 6 -5 1 -5 -13z"/>
<path d="M7771 11744 c0 -11 3 -14 6 -6 3 7 2 16 -1 19 -3 4 -6 -2 -5 -13z"/>
<path d="M4132 11730 c0 -14 2 -19 5 -12 2 6 2 18 0 25 -3 6 -5 1 -5 -13z"/>
<path d="M7321 11734 c0 -11 3 -14 6 -6 3 7 2 16 -1 19 -3 4 -6 -2 -5 -13z"/>
<path d="M4442 11700 c0 -14 2 -19 5 -12 2 6 2 18 0 25 -3 6 -5 1 -5 -13z"/>
<path d="M4163 11675 c0 -22 2 -30 4 -17 2 12 2 30 0 40 -3 9 -5 -1 -4 -23z"/>
<path d="M7222 11680 c0 -14 2 -19 5 -12 2 6 2 18 0 25 -3 6 -5 1 -5 -13z"/>
<path d="M7331 11674 c0 -11 3 -14 6 -6 3 7 2 16 -1 19 -3 4 -6 -2 -5 -13z"/>
<path d="M4122 11635 c0 -16 2 -22 5 -12 2 9 2 23 0 30 -3 6 -5 -1 -5 -18z"/>
<path d="M3952 11630 c0 -14 2 -19 5 -12 2 6 2 18 0 25 -3 6 -5 1 -5 -13z"/>
<path d="M7232 11615 c0 -16 2 -22 5 -12 2 9 2 23 0 30 -3 6 -5 -1 -5 -18z"/>
<path d="M7641 11614 c0 -11 3 -14 6 -6 3 7 2 16 -1 19 -3 4 -6 -2 -5 -13z"/>
<path d="M7342 11595 c0 -16 2 -22 5 -12 2 9 2 23 0 30 -3 6 -5 -1 -5 -18z"/>
<path d="M7792 11585 c0 -16 2 -22 5 -12 2 9 2 23 0 30 -3 6 -5 -1 -5 -18z"/>
<path d="M4120 11594 c0 -6 7 -17 15 -24 20 -17 23 -246 3 -234 -10 6 -10 5
-1 -7 6 -8 13 -27 16 -44 2 -16 5 44 6 134 0 90 -2 161 -6 158 -3 -4 -12 1
-19 11 -7 9 -14 12 -14 6z"/>
<path d="M4113 11510 c0 -30 2 -43 4 -27 2 15 2 39 0 55 -2 15 -4 2 -4 -28z"/>
<path d="M7652 11540 c0 -14 2 -19 5 -12 2 6 2 18 0 25 -3 6 -5 1 -5 -13z"/>
<path d="M7241 11534 c0 -11 3 -14 6 -6 3 7 2 16 -1 19 -3 4 -6 -2 -5 -13z"/>
<path d="M7451 11439 c0 -42 -5 -99 -11 -128 -5 -29 -6 -61 -1 -73 10 -26 27
208 18 252 -2 14 -5 -9 -6 -51z"/>
<path d="M7353 11425 c0 -44 2 -61 4 -37 2 23 2 59 0 80 -2 20 -4 1 -4 -43z"/>
<path d="M7663 11435 c0 -22 2 -30 4 -17 2 12 2 30 0 40 -3 9 -5 -1 -4 -23z"/>
<path d="M7252 11440 c0 -14 2 -19 5 -12 2 6 2 18 0 25 -3 6 -5 1 -5 -13z"/>
<path d="M8111 11364 c0 -11 3 -14 6 -6 3 7 2 16 -1 19 -3 4 -6 -2 -5 -13z"/>
<path d="M5644 11275 c0 -49 1 -71 3 -48 2 23 2 64 0 90 -2 26 -3 8 -3 -42z"/>
<path d="M7602 11335 c0 -16 2 -22 5 -12 2 9 2 23 0 30 -3 6 -5 -1 -5 -18z"/>
<path d="M7262 11320 c0 -19 2 -27 5 -17 2 9 2 25 0 35 -3 9 -5 1 -5 -18z"/>
<path d="M4101 11314 c0 -11 3 -14 6 -6 3 7 2 16 -1 19 -3 4 -6 -2 -5 -13z"/>
<path d="M8121 11314 c0 -11 3 -14 6 -6 3 7 2 16 -1 19 -3 4 -6 -2 -5 -13z"/>
<path d="M7792 11275 c0 -16 2 -22 5 -12 2 9 2 23 0 30 -3 6 -5 -1 -5 -18z"/>
<path d="M7342 11260 c0 -14 2 -19 5 -12 2 6 2 18 0 25 -3 6 -5 1 -5 -13z"/>
<path d="M4711 11104 c-18 -58 -30 -108 -28 -111 3 -2 8 4 10 14 3 10 18 58
32 106 15 49 25 91 23 93 -3 2 -19 -44 -37 -102z"/>
<path d="M7581 11184 c0 -11 3 -14 6 -6 3 7 2 16 -1 19 -3 4 -6 -2 -5 -13z"/>
<path d="M7662 11160 c0 -19 2 -27 5 -17 2 9 2 25 0 35 -3 9 -5 1 -5 -18z"/>
<path d="M5633 11120 c0 -25 2 -35 4 -22 2 12 2 32 0 45 -2 12 -4 2 -4 -23z"/>
<path d="M7651 11074 c0 -11 3 -14 6 -6 3 7 2 16 -1 19 -3 4 -6 -2 -5 -13z"/>
<path d="M5623 11025 c0 -22 2 -30 4 -17 2 12 2 30 0 40 -3 9 -5 -1 -4 -23z"/>
<path d="M5612 10950 c0 -19 2 -27 5 -17 2 9 2 25 0 35 -3 9 -5 1 -5 -18z"/>
<path d="M7326 10933 c-6 -14 -5 -15 5 -6 7 7 10 15 7 18 -3 3 -9 -2 -12 -12z"/>
<path d="M5603 10875 c0 -22 2 -30 4 -17 2 12 2 30 0 40 -3 9 -5 -1 -4 -23z"/>
<path d="M7251 10894 c0 -11 3 -14 6 -6 3 7 2 16 -1 19 -3 4 -6 -2 -5 -13z"/>
<path d="M5592 10800 c0 -19 2 -27 5 -17 2 9 2 25 0 35 -3 9 -5 1 -5 -18z"/>
<path d="M5571 10694 c-6 -37 -10 -68 -8 -71 3 -2 10 26 17 62 7 36 10 68 8
70 -3 3 -10 -25 -17 -61z"/>
<path d="M7369 10733 c-13 -16 -12 -17 4 -4 16 13 21 21 13 21 -2 0 -10 -8
-17 -17z"/>
<path d="M8111 10734 c0 -11 3 -14 6 -6 3 7 2 16 -1 19 -3 4 -6 -2 -5 -13z"/>
<path d="M5279 10701 c-16 -16 -29 -38 -28 -48 0 -14 2 -14 6 -3 3 8 17 27 31
43 21 21 35 27 70 27 61 0 102 -40 102 -100 0 -23 -5 -50 -10 -61 -13 -22 -61
-49 -90 -49 -36 0 -81 30 -95 63 -9 21 -14 26 -15 14 0 -11 15 -34 34 -53 27
-27 42 -34 74 -34 78 0 135 77 113 150 -15 52 -56 80 -116 80 -38 0 -52 -5
-76 -29z"/>
<path d="M3947 10665 c-24 -50 -20 -58 4 -12 11 22 19 41 17 43 -3 2 -12 -12
-21 -31z"/>
<path d="M8101 10684 c0 -11 3 -14 6 -6 3 7 2 16 -1 19 -3 4 -6 -2 -5 -13z"/>
<path d="M3912 10585 c-17 -37 -14 -45 4 -12 9 16 14 31 11 33 -2 2 -9 -7 -15
-21z"/>
<path d="M8110 10580 c-9 -6 -10 -10 -3 -10 6 0 15 5 18 10 8 12 4 12 -15 0z"/>
<path d="M8841 10534 c0 -11 3 -14 6 -6 3 7 2 16 -1 19 -3 4 -6 -2 -5 -13z"/>
<path d="M3882 10515 c-17 -37 -14 -45 4 -12 9 16 14 31 11 33 -2 2 -9 -7 -15
-21z"/>
<path d="M7476 9920 c3 -14 11 -32 16 -40 6 -10 7 -7 2 10 -3 14 -11 32 -16
40 -6 10 -7 7 -2 -10z"/>
<path d="M7500 9855 c0 -5 5 -17 10 -25 5 -8 10 -10 10 -5 0 6 -5 17 -10 25
-5 8 -10 11 -10 5z"/>
<path d="M7520 9805 c0 -5 5 -17 10 -25 5 -8 10 -10 10 -5 0 6 -5 17 -10 25
-5 8 -10 11 -10 5z"/>
<path d="M7541 9755 c0 -5 6 -21 14 -35 8 -14 14 -20 14 -15 0 6 -6 21 -14 35
-8 14 -14 21 -14 15z"/>
<path d="M7574 9673 c34 -89 70 -173 73 -169 5 5 -67 186 -74 186 -3 0 -2 -8
1 -17z"/>
<path d="M7670 9435 c0 -5 5 -17 10 -25 5 -8 10 -10 10 -5 0 6 -5 17 -10 25
-5 8 -10 11 -10 5z"/>
<path d="M7721 9325 c0 -5 8 -26 19 -45 11 -19 19 -30 19 -25 0 6 -8 26 -19
45 -11 19 -19 31 -19 25z"/>
<path d="M7762 9220 c0 -14 2 -19 5 -12 2 6 2 18 0 25 -3 6 -5 1 -5 -13z"/>
<path d="M7735 9109 c-4 -6 -4 -13 -1 -16 3 -4 6 -1 6 6 0 9 5 9 20 1 11 -6
20 -8 20 -6 0 13 -39 26 -45 15z"/>
<path d="M7810 9077 c0 -2 35 -25 78 -50 103 -60 236 -160 250 -189 6 -13 11
-17 11 -9 1 19 -69 83 -154 141 -76 51 -185 115 -185 107z"/>
<path d="M7671 9020 c-88 -80 -246 -137 -356 -127 -46 4 -54 3 -35 -5 14 -5
55 -7 92 -5 l68 6 35 -67 c46 -87 109 -163 176 -212 30 -22 59 -45 66 -50 7
-6 17 -10 22 -10 21 0 81 -34 81 -46 0 -16 -18 -21 -102 -29 -64 -6 -68 -5
-68 14 0 13 12 29 33 41 17 11 27 20 21 20 -24 0 -64 -42 -64 -67 l0 -25 73 7
c39 3 80 9 90 11 32 10 17 -16 -22 -36 -53 -26 -83 -66 -79 -104 2 -19 9 -31
18 -32 9 0 10 1 3 3 -7 3 -13 17 -13 33 0 31 45 81 91 100 21 9 29 19 29 36 0
30 7 30 53 -1 22 -16 37 -34 37 -46 0 -20 -44 -69 -62 -69 -15 0 -109 -42
-104 -47 2 -3 18 3 35 11 42 22 45 20 21 -14 -27 -38 -24 -93 5 -98 18 -2 18
-2 3 8 -32 19 -22 64 23 108 22 23 49 44 60 47 10 4 22 17 25 31 l6 24 39 -35
c22 -19 44 -35 50 -35 5 0 8 -3 6 -7 -3 -5 20 -6 51 -4 43 3 52 5 35 12 -12 4
-26 16 -33 26 -10 16 -11 16 -7 -4 4 -16 0 -23 -9 -23 -23 0 -91 38 -106 58
-23 33 -107 90 -201 139 -115 58 -214 155 -271 262 l-38 72 24 7 c53 14 176
84 213 121 50 52 43 52 -14 1z"/>
<path d="M8152 8780 c0 -14 2 -19 5 -12 2 6 2 18 0 25 -3 6 -5 1 -5 -13z"/>
<path d="M7931 8728 c-2 -50 29 -107 75 -139 24 -16 49 -40 55 -52 6 -12 29
-46 51 -74 29 -39 39 -60 36 -78 -3 -13 -1 -22 3 -19 18 11 8 48 -26 94 -40
54 -44 80 -15 87 17 5 14 9 -22 33 -24 15 -52 37 -63 49 -11 13 -29 27 -40 33
-11 5 0 -9 24 -31 48 -46 50 -66 2 -32 -32 23 -61 59 -61 74 0 5 11 7 25 5 14
-3 25 -2 25 2 0 4 -13 10 -29 13 -23 5 -31 13 -34 34 l-4 28 -2 -27z m147
-160 c7 -7 12 -16 12 -20 0 -15 -15 -8 -28 12 -13 22 -3 27 16 8z"/>
<path d="M8170 8716 c0 -5 14 -34 31 -64 23 -42 29 -63 25 -86 -4 -22 -3 -27
4 -16 17 26 11 53 -25 115 -19 33 -35 56 -35 51z"/>
<path d="M8179 8413 c-12 -52 -21 -66 -86 -132 -61 -62 -75 -72 -88 -61 -8 7
-16 22 -16 34 -1 16 -2 17 -6 4 -5 -21 13 -58 29 -58 12 0 136 114 152 139 12
19 38 122 32 128 -2 2 -10 -22 -17 -54z"/>
<path d="M8000 8310 c-6 -11 -16 -20 -21 -20 -16 0 -141 -61 -136 -66 2 -2 30
9 63 26 32 16 66 30 75 30 9 0 21 11 27 25 14 30 7 34 -8 5z"/>
<path d="M6843 7820 c0 -25 2 -35 4 -22 2 12 2 32 0 45 -2 12 -4 2 -4 -23z"/>
<path d="M3663 7720 c0 -36 2 -50 4 -32 2 17 2 47 0 65 -2 17 -4 3 -4 -33z"/>
<path d="M5571 7725 c0 -5 6 -32 13 -60 8 -27 14 -41 14 -30 0 21 -25 107 -27
90z"/>
<path d="M6853 7660 c0 -41 2 -58 4 -37 2 20 2 54 0 75 -2 20 -4 3 -4 -38z"/>
<path d="M3673 7565 c0 -33 2 -45 4 -27 2 18 2 45 0 60 -2 15 -4 0 -4 -33z"/>
<path d="M5601 7602 c-2 -22 173 -706 177 -694 2 8 -158 659 -173 697 -2 6 -4
4 -4 -3z"/>
<path d="M6868 6885 c2 -374 5 -687 6 -695 6 -27 3 1052 -3 1215 -3 88 -5
-146 -3 -520z"/>
<path d="M4831 7449 c-7 -38 -11 -72 -9 -75 3 -2 10 28 17 67 7 38 11 72 9 75
-3 2 -10 -28 -17 -67z"/>
<path d="M3683 7435 c0 -33 2 -45 4 -27 2 18 2 45 0 60 -2 15 -4 0 -4 -33z"/>
<path d="M4791 7239 c-84 -454 -110 -612 -95 -574 8 22 125 678 122 687 -2 6
-14 -45 -27 -113z"/>
<path d="M3693 7300 c0 -30 2 -43 4 -27 2 15 2 39 0 55 -2 15 -4 2 -4 -28z"/>
<path d="M3703 7185 c0 -33 2 -45 4 -27 2 18 2 45 0 60 -2 15 -4 0 -4 -33z"/>
<path d="M3713 7070 c0 -30 2 -43 4 -27 2 15 2 39 0 55 -2 15 -4 2 -4 -28z"/>
<path d="M3723 6960 c0 -30 2 -43 4 -27 2 15 2 39 0 55 -2 15 -4 2 -4 -28z"/>
<path d="M3732 6855 c0 -22 5 -107 12 -190 8 -82 14 -123 14 -90 0 33 -5 119
-12 190 -7 72 -14 112 -14 90z"/>
<path d="M5787 6860 c3 -19 12 -53 19 -75 13 -38 13 -38 7 -5 -3 19 -12 53
-19 75 -13 38 -13 38 -7 5z"/>
<path d="M5821 6730 c0 -8 6 -37 13 -65 8 -27 15 -43 15 -35 0 8 -6 38 -13 65
-8 28 -15 43 -15 35z"/>
<path d="M4682 6630 c0 -14 2 -19 5 -12 2 6 2 18 0 25 -3 6 -5 1 -5 -13z"/>
<path d="M5851 6598 c-1 -22 53 -280 84 -398 34 -131 26 -83 -29 175 -50 233
-54 250 -55 223z"/>
<path d="M4672 6570 c0 -14 2 -19 5 -12 2 6 2 18 0 25 -3 6 -5 1 -5 -13z"/>
<path d="M4621 6306 c-24 -130 -42 -239 -39 -241 3 -3 10 23 16 57 6 35 24
139 42 231 17 93 29 174 28 179 -2 6 -23 -96 -47 -226z"/>
<path d="M3764 6255 c0 -137 2 -195 3 -128 2 67 2 179 0 250 -1 70 -3 16 -3
-122z"/>
<path d="M6881 6044 c1 -71 5 -160 9 -199 4 -38 5 18 2 125 -3 107 -6 197 -8
199 -2 2 -3 -54 -3 -125z"/>
<path d="M5961 6084 c0 -11 3 -14 6 -6 3 7 2 16 -1 19 -3 4 -6 -2 -5 -13z"/>
<path d="M5971 6044 c0 -11 3 -14 6 -6 3 7 2 16 -1 19 -3 4 -6 -2 -5 -13z"/>
<path d="M4572 6025 c0 -16 2 -22 5 -12 2 9 2 23 0 30 -3 6 -5 -1 -5 -18z"/>
<path d="M5981 6004 c0 -11 3 -14 6 -6 3 7 2 16 -1 19 -3 4 -6 -2 -5 -13z"/>
<path d="M3752 5963 c-3 -58 -29 -252 -48 -346 -9 -43 -14 -81 -11 -83 13 -13
70 375 64 434 l-4 37 -1 -42z"/>
<path d="M4542 5818 c-12 -90 -35 -217 -52 -283 -16 -65 -28 -120 -26 -122 4
-5 43 137 61 225 18 85 48 318 43 333 -2 6 -13 -63 -26 -153z"/>
<path d="M5991 5964 c0 -11 3 -14 6 -6 3 7 2 16 -1 19 -3 4 -6 -2 -5 -13z"/>
<path d="M6001 5914 c0 -11 3 -14 6 -6 3 7 2 16 -1 19 -3 4 -6 -2 -5 -13z"/>
<path d="M6011 5874 c0 -11 3 -14 6 -6 3 7 2 16 -1 19 -3 4 -6 -2 -5 -13z"/>
<path d="M6022 5840 c0 -8 4 -26 8 -40 6 -20 8 -21 8 -5 0 11 -3 29 -8 40 -5
12 -8 14 -8 5z"/>
<path d="M6042 5750 c3 -14 24 -117 47 -230 73 -356 103 -458 179 -600 55
-104 58 -94 4 15 -65 131 -94 218 -132 400 -54 262 -92 430 -98 435 -2 3 -2
-6 0 -20z"/>
<path d="M6903 5730 c0 -25 2 -35 4 -22 2 12 2 32 0 45 -2 12 -4 2 -4 -23z"/>
<path d="M6912 5650 c0 -19 2 -27 5 -17 2 9 2 25 0 35 -3 9 -5 1 -5 -18z"/>
<path d="M6922 5575 c0 -16 2 -22 5 -12 2 9 2 23 0 30 -3 6 -5 -1 -5 -18z"/>
<path d="M6932 5510 c0 -14 2 -19 5 -12 2 6 2 18 0 25 -3 6 -5 1 -5 -13z"/>
<path d="M3666 5454 c-9 -37 -15 -68 -13 -71 3 -2 12 26 21 63 9 37 15 68 13
71 -3 2 -12 -26 -21 -63z"/>
<path d="M6942 5460 c0 -14 2 -19 5 -12 2 6 2 18 0 25 -3 6 -5 1 -5 -13z"/>
<path d="M6951 5404 c0 -11 3 -14 6 -6 3 7 2 16 -1 19 -3 4 -6 -2 -5 -13z"/>
<path d="M4451 5384 c0 -11 3 -14 6 -6 3 7 2 16 -1 19 -3 4 -6 -2 -5 -13z"/>
<path d="M3623 5299 c-11 -41 -42 -147 -68 -236 -26 -90 -45 -168 -43 -175 3
-7 12 19 22 57 10 39 40 146 67 239 27 93 48 173 46 179 -1 5 -12 -23 -24 -64z"/>
<path d="M4431 5304 c-7 -30 -11 -57 -8 -60 2 -2 9 21 16 52 7 30 11 57 8 60
-2 2 -9 -21 -16 -52z"/>
<path d="M6995 5245 c10 -33 65 -119 102 -161 30 -34 30 -33 -6 17 -23 31 -55
80 -72 110 -17 30 -28 45 -24 34z"/>
<path d="M4412 5195 c0 -16 2 -22 5 -12 2 9 2 23 0 30 -3 6 -5 -1 -5 -18z"/>
<path d="M4403 5115 c0 -22 2 -30 4 -17 2 12 2 30 0 40 -3 9 -5 -1 -4 -23z"/>
<path d="M4393 5005 c0 -27 2 -38 4 -22 2 15 2 37 0 50 -2 12 -4 0 -4 -28z"/>
<path d="M7140 5026 c0 -2 8 -10 18 -17 15 -13 16 -12 3 4 -13 16 -21 21 -21
13z"/>
<path d="M4383 4895 c0 -27 2 -38 4 -22 2 15 2 37 0 50 -2 12 -4 0 -4 -28z"/>
<path d="M7220 4916 c0 -2 8 -10 18 -17 15 -13 16 -12 3 4 -13 16 -21 21 -21
13z"/>
<path d="M3487 4796 c-9 -42 -17 -84 -16 -94 0 -9 9 21 20 68 10 47 18 89 16
94 -2 5 -11 -25 -20 -68z"/>
<path d="M6330 4810 c6 -11 13 -20 16 -20 2 0 0 9 -6 20 -6 11 -13 20 -16 20
-2 0 0 -9 6 -20z"/>
<path d="M4373 4765 c0 -33 2 -45 4 -27 2 18 2 45 0 60 -2 15 -4 0 -4 -33z"/>
<path d="M7319 4775 c5 -11 17 -29 26 -40 l16 -20 -10 20 c-5 11 -17 29 -26
40 l-16 20 10 -20z"/>
<path d="M6411 4658 c35 -70 65 -125 67 -123 5 4 -106 226 -120 240 -5 6 19
-47 53 -117z"/>
<path d="M7370 4690 c6 -11 13 -20 16 -20 2 0 0 9 -6 20 -6 11 -13 20 -16 20
-2 0 0 -9 6 -20z"/>
<path d="M4355 4590 c-4 -61 -5 -113 -2 -116 2 -3 8 45 12 106 4 62 5 114 2
116 -3 3 -8 -45 -12 -106z"/>
<path d="M3451 4598 c-19 -132 -24 -478 -12 -803 19 -485 38 -748 106 -1470
28 -288 34 -575 14 -675 -5 -30 -13 -102 -15 -160 -4 -79 -13 -126 -35 -191
-47 -140 -69 -295 -69 -494 0 -121 -5 -196 -16 -247 -18 -86 -11 -335 11 -378
19 -36 81 -68 171 -86 64 -13 117 -16 274 -11 292 8 380 31 400 106 5 21 7 46
4 55 -3 9 -1 51 6 94 11 66 10 90 -4 163 -9 47 -28 119 -42 160 -14 41 -29
101 -34 133 -5 33 -20 98 -34 145 -14 47 -32 123 -40 169 -8 45 -28 110 -43
145 -25 57 -27 73 -28 187 0 73 -7 164 -18 220 -47 259 7 909 139 1675 119
695 167 1014 161 1078 -3 37 -4 35 -5 -15 -2 -71 -31 -109 -106 -137 -215 -80
-620 -32 -747 89 -37 35 -39 40 -39 97 0 33 5 97 11 142 6 45 9 84 7 87 -3 2
-10 -33 -17 -78z"/>
<path d="M7421 4605 c18 -33 37 -64 42 -70 14 -15 -39 87 -58 110 -9 11 -1 -7
16 -40z"/>
<path d="M6490 4495 c0 -5 5 -17 10 -25 5 -8 10 -10 10 -5 0 6 -5 17 -10 25
-5 8 -10 11 -10 5z"/>
<path d="M7501 4455 c0 -5 8 -26 19 -45 11 -19 19 -30 19 -25 0 6 -8 26 -19
45 -11 19 -19 31 -19 25z"/>
<path d="M6510 4445 c0 -5 5 -17 10 -25 5 -8 10 -10 10 -5 0 6 -5 17 -10 25
-5 8 -10 11 -10 5z"/>
<path d="M7545 4355 c25 -77 27 -112 11 -167 -37 -127 -175 -243 -363 -304
-76 -25 -104 -29 -203 -29 -205 0 -251 30 -320 205 -24 60 -45 108 -47 106 -8
-8 80 -212 242 -561 307 -660 356 -772 465 -1055 159 -411 234 -699 255 -977
7 -81 5 -102 -15 -163 -19 -60 -27 -72 -58 -87 -33 -17 -38 -25 -60 -103 -13
-47 -30 -92 -37 -100 -15 -17 -105 -242 -105 -263 0 -23 -68 -183 -100 -233
-81 -131 -86 -153 -78 -343 3 -76 5 -86 28 -102 64 -47 317 -83 535 -76 165 5
227 17 286 58 31 22 92 135 108 199 26 104 124 370 136 370 20 0 75 92 97 163
18 55 19 78 13 207 -10 214 -33 305 -124 490 -51 102 -83 146 -127 172 -27 16
-37 33 -58 96 -14 42 -35 118 -45 167 -19 87 -27 144 -91 685 -64 534 -128
904 -214 1245 -36 144 -110 378 -128 405 -7 12 -8 11 -3 -5z"/>
<path d="M6550 4345 c0 -5 5 -17 10 -25 5 -8 10 -10 10 -5 0 6 -5 17 -10 25
-5 8 -10 11 -10 5z"/>
<path d="M6570 4295 c0 -5 5 -17 10 -25 5 -8 10 -10 10 -5 0 6 -5 17 -10 25
-5 8 -10 11 -10 5z"/>
<path d="M6600 4215 c0 -5 5 -17 10 -25 5 -8 10 -10 10 -5 0 6 -5 17 -10 25
-5 8 -10 11 -10 5z"/>
</g>
</svg>
